# xmcd CD database file
#
# Track frame offsets:
#	150
#	24478
#	45793
#	59790
#	74433
#	93433
#	111096
#	130620
#	150812
#	172597
#	189955
#	210017
#	225291
#
# Disc length: 3325 seconds
#
# Revision: 0
# Processed by: cddbd v1.5.2PL0 Copyright (c) Steve Scherf et al.
# Submitted via: CDex 1.51
#
DISCID=8b0cfb0d
DTITLE=Harri Stojka - New York
DYEAR=1987
DGENRE=Jazz
TTITLE0=Harri Stojka - New York
TTITLE1=Harri Stojka - Confirmation
TTITLE2=Harri Stojka - Donna Lee
TTITLE3=Harri Stojka - Amenza Ketane
TTITLE4=Harri Stojka - Bridgin' The Blues
TTITLE5=Harri Stojka - Feel Like Making Love
TTITLE6=Harri Stojka - Move
TTITLE7=Harri Stojka - What's Going On
TTITLE8=Harri Stojka - Half A Minute
TTITLE9=Harri Stojka - Freedom Jazz Dance
TTITLE10=Harri Stojka - Slide To Me
TTITLE11=Harri Stojka - Valdez In The Country
TTITLE12=Harri Stojka - Spain
EXTD=YEAR: 1987
EXTT0=
EXTT1=
EXTT2=
EXTT3=
EXTT4=
EXTT5=
EXTT6=
EXTT7=
EXTT8=
EXTT9=
EXTT10=
EXTT11=
EXTT12=
PLAYORDER=
